<svg xmlns="http://www.w3.org/2000/svg" width="100" height="100" viewBox="0 0 100 100">
  <rect width="100" height="100" rx="20" fill="#0a1730"/>
  <g transform="translate(50 50) scale(0.85)">
    <path d="M0 -42 C 8 -26, 8 -10, 0 0 C -8 -10, -8 -26, 0 -42 Z" fill="#5aa6ff"/>
    <path d="M0 42 C 8 26, 8 10, 0 0 C -8 10, -8 26, 0 42 Z" fill="#ffffff" opacity="0.3"/>
    <path d="M-42 0 C -26 -8, -10 -8, 0 0 C -10 8, -26 8, -42 0 Z" fill="#ffffff" opacity="0.55"/>
    <path d="M42 0 C 26 -8, 10 -8, 0 0 C 10 8, 26 8, 42 0 Z" fill="#ffffff" opacity="0.55"/>
  </g>
</svg>
